<svg version="1.0" xmlns="http://www.w3.org/2000/svg"
 width="16" height="16" viewBox="0 0 241.000000 175.000000"
 preserveAspectRatio="xMidYMid meet">

<g transform="translate(0.000000,175.000000) scale(0.100000,-0.100000)"
fill="#ffffff" stroke="none">
<path d="M795 1690 c-119 -13 -181 -30 -229 -61 -45 -30 -119 -120 -190 -231
-20 -32 -40 -58 -44 -58 -4 0 -18 21 -32 48 l-25 47 -125 0 c-138 0 -145 -4
-120 -66 17 -41 35 -48 142 -55 51 -4 105 -13 120 -20 94 -48 1014 -71 1504
-39 247 16 286 21 324 40 14 7 66 15 116 18 50 4 99 10 109 13 9 4 26 25 36
48 28 62 18 67 -125 64 l-121 -3 -27 -53 -27 -53 -62 93 c-123 184 -170 226
-295 254 -55 13 -148 17 -464 19 -217 2 -426 0 -465 -5z m805 -38 c0 -4 -39
-27 -87 -51 -123 -60 -264 -155 -358 -241 l-80 -72 -205 7 c-113 3 -206 8
-209 10 -7 8 42 61 107 117 139 120 350 200 607 231 60 8 225 7 225 -1z m244
-75 l20 -28 -61 -55 c-52 -46 -135 -144 -161 -189 -10 -18 -152 -32 -152 -16
0 46 289 330 324 318 5 -2 19 -16 30 -30z m66 -103 c0 -8 -17 -30 -39 -49 -21
-19 -54 -58 -72 -85 -24 -34 -41 -50 -56 -50 -13 0 -23 4 -23 8 0 19 64 100
118 149 55 50 72 57 72 27z m59 -106 c12 -28 19 -53 17 -55 -2 -3 -39 -7 -81
-10 -68 -5 -77 -4 -69 9 17 29 89 106 100 107 6 1 21 -22 33 -51z"/>
<path d="M630 1202 c0 -5 22 -41 49 -79 52 -73 93 -113 118 -113 20 0 12 30
-33 125 l-36 75 -49 0 c-27 0 -49 -4 -49 -8z"/>
<path d="M1676 1188 c-20 -30 -76 -155 -76 -168 0 -19 29 -10 63 20 33 29 117
145 117 162 0 4 -20 8 -45 8 -35 0 -48 -5 -59 -22z"/>
<path d="M96 1063 c-42 -41 -59 -76 -51 -104 12 -38 166 -102 276 -114 83 -9
134 5 185 50 l39 35 -25 20 c-14 11 -30 20 -35 20 -6 0 -84 29 -173 65 -89 36
-165 65 -170 65 -4 0 -25 -17 -46 -37z"/>
<path d="M1070 1091 c0 -18 114 -111 136 -111 12 0 48 25 85 60 l64 59 -142 1
c-81 0 -143 -4 -143 -9z"/>
<path d="M2070 1024 c-101 -41 -189 -79 -194 -84 -15 -15 29 -55 87 -80 43
-19 61 -21 120 -15 130 12 287 81 287 126 0 43 -70 130 -103 129 -7 -1 -95
-35 -197 -76z"/>
<path d="M625 900 c-37 -36 -65 -72 -65 -83 0 -11 22 -42 49 -68 l48 -49 240
0 c172 0 242 3 251 12 13 13 17 133 6 186 -9 46 -15 47 -271 57 l-192 7 -66
-62z m423 4 c17 -3 32 -10 32 -17 0 -9 -36 -10 -152 -4 -186 10 -227 15 -207
27 14 9 261 4 327 -6z m-44 -73 c50 -4 81 -11 84 -18 3 -10 -15 -13 -70 -12
-132 1 -357 14 -363 21 -30 29 66 32 349 9z m-21 -68 c65 -4 97 -9 94 -17 -3
-8 -61 -10 -196 -8 -190 3 -241 10 -241 33 0 11 60 10 343 -8z"/>
<path d="M1412 950 c-86 -5 -128 -12 -138 -22 -19 -19 -30 -163 -15 -200 l11
-28 243 0 244 0 47 50 c25 27 46 58 46 68 0 10 -29 47 -64 80 l-64 62 -94 -2
c-51 0 -149 -4 -216 -8z m277 -39 c12 -8 10 -11 -10 -15 -46 -9 -349 -21 -349
-13 0 16 49 25 150 26 57 1 106 4 109 7 8 8 86 4 100 -5z m68 -78 c6 -17 -32
-21 -239 -29 -169 -5 -188 -5 -188 10 0 12 11 16 48 17 26 1 97 5 157 9 148
10 218 8 222 -7z m13 -63 c0 -6 -10 -14 -23 -19 -35 -14 -389 -24 -407 -12 -8
5 -12 12 -9 15 5 6 256 22 377 25 36 0 62 -3 62 -9z"/>
<path d="M46 828 c-27 -38 -14 -284 18 -346 26 -51 156 -97 306 -109 65 -5 80
-3 80 8 0 15 -31 56 -120 160 -68 79 -93 112 -154 212 -62 100 -98 121 -130
75z m64 -64 c0 -8 -9 -14 -20 -14 -19 0 -28 28 -13 43 9 9 33 -12 33 -29z m44
-79 c4 -12 -4 -15 -39 -15 -33 0 -45 4 -45 15 0 11 11 15 39 15 25 0 41 -5 45
-15z m48 -72 c30 -27 21 -33 -51 -33 -70 0 -88 8 -77 35 8 22 104 20 128 -2z
m93 -104 c19 -19 18 -19 -77 -19 -75 0 -100 4 -112 16 -9 8 -14 19 -12 22 2 4
44 6 93 4 70 -3 92 -8 108 -23z m86 -90 c11 -21 10 -21 -35 -15 -26 4 -64 13
-84 21 l-37 14 72 0 c64 1 74 -1 84 -20z"/>
<path d="M2298 838 c-8 -7 -49 -65 -91 -128 -42 -63 -114 -160 -161 -214 -48
-54 -86 -106 -86 -114 0 -36 281 14 353 62 44 30 57 76 64 228 5 109 4 131
-11 152 -18 28 -43 33 -68 14z m42 -69 c0 -12 -7 -19 -20 -19 -23 0 -24 4 -9
31 12 23 29 16 29 -12z m0 -84 c0 -11 -11 -15 -40 -15 -38 0 -49 8 -33 23 3 4
21 7 40 7 23 0 33 -5 33 -15z m0 -80 c0 -24 -2 -25 -76 -25 -77 0 -79 2 -51
38 6 7 33 12 68 12 56 0 59 -1 59 -25z m-34 -101 c-14 -10 -48 -14 -114 -14
-94 0 -95 0 -77 20 14 16 33 20 104 22 93 3 118 -5 87 -28z m-129 -70 c-7 -8
-115 -34 -140 -34 -15 0 -15 3 -5 20 11 17 24 20 82 20 38 0 67 -3 63 -6z"/>
<path d="M485 628 c-8 -21 90 -288 115 -313 20 -20 32 -20 593 -20 314 0 584
3 598 7 29 9 42 34 104 206 20 57 34 111 30 119 -5 14 -22 15 -127 9 l-122 -6
-36 -35 -36 -35 -399 0 -399 0 -36 35 -36 35 -122 6 c-103 6 -122 5 -127 -8z"/>
<path d="M76 305 c-15 -80 45 -175 138 -219 142 -67 329 -53 445 35 l51 39
107 -11 c140 -14 637 -14 776 0 l109 11 36 -30 c119 -94 312 -113 457 -44 95
44 155 140 140 221 -3 18 -11 33 -18 33 -7 0 -64 -16 -127 -35 -270 -84 -467
-106 -930 -109 -547 -2 -735 18 -1039 110 -62 18 -119 34 -126 34 -7 0 -16
-16 -19 -35z"/>
</g>
</svg>
