<svg version="1.0" xmlns="http://www.w3.org/2000/svg"
     width="125" height="75" viewBox="0 0 449 270"
 preserveAspectRatio="xMidYMid meet">

<g transform="translate(0.000000,270.000000) scale(0.100000,-0.100000)"
fill="#000000" stroke="none">
<path d="M1450 2576 c-139 -37 -189 -56 -310 -116 -100 -50 -125 -58 -190 -64
-42 -3 -107 -12 -146 -20 -74 -16 -188 -55 -181 -62 2 -3 33 2 68 11 69 16
242 20 300 6 33 -7 44 -3 120 42 100 59 257 135 389 188 110 44 87 51 -50 15z"/>
<path d="M2150 2565 c-267 -35 -286 -43 -283 -119 2 -60 150 -395 172 -390 9
2 115 20 236 40 276 46 380 49 511 12 214 -60 430 -183 637 -361 31 -27 57
-46 57 -42 0 13 -124 137 -200 199 -112 93 -256 194 -334 233 -38 19 -65 38
-60 42 5 5 70 16 144 25 74 10 145 20 158 23 l24 6 -29 19 c-15 10 -64 41
-109 68 l-81 50 -119 -36 c-223 -66 -332 -85 -519 -89 l-170 -4 135 18 c187
26 345 66 437 110 72 35 112 65 101 76 -12 13 -241 115 -287 129 -75 22 -207
19 -421 -9z"/>
<path d="M1525 2501 c-67 -24 -212 -97 -253 -128 -35 -26 -62 -70 -62 -101 0
-102 298 -214 607 -229 l123 -6 -21 61 -21 62 -96 0 c-124 0 -216 14 -318 46
-77 24 -151 60 -142 69 2 2 39 -7 82 -20 102 -31 259 -49 360 -41 44 4 82 9
84 11 2 2 -4 24 -13 49 l-18 46 -61 0 c-72 0 -187 17 -200 30 -5 5 14 6 46 3
78 -8 188 5 188 22 0 21 -62 97 -99 122 -42 28 -113 30 -186 4z"/>
<path d="M697 2289 c-116 -12 -308 -62 -293 -76 2 -3 50 3 106 13 151 25 400
9 400 -25 0 -4 -20 -24 -45 -44 -54 -46 -57 -71 -16 -136 48 -74 80 -154 100
-243 17 -81 18 -82 25 -45 4 24 1 82 -10 148 -19 124 -18 127 53 170 32 20 33
22 18 43 -42 58 -47 67 -42 72 12 12 102 -64 153 -130 30 -37 54 -63 54 -56 0
7 -17 44 -37 84 -48 92 -153 200 -209 215 -61 16 -161 20 -257 10z"/>
<path d="M3475 2204 c11 -3 65 -16 120 -30 183 -44 337 -139 391 -239 10 -19
25 -35 34 -35 8 0 48 -18 88 -40 40 -22 75 -40 77 -40 8 0 -19 55 -58 118
-101 163 -304 259 -562 268 -60 2 -101 1 -90 -2z"/>
<path d="M667 2183 c-30 -3 -51 -17 -102 -65 -85 -79 -122 -154 -137 -278 -6
-50 -9 -92 -7 -94 2 -3 16 -7 30 -11 26 -6 26 -6 32 65 11 127 66 190 105 120
32 -59 33 -59 90 -52 l54 7 -37 70 c-46 88 -42 116 21 180 25 25 51 45 57 45
7 0 6 4 -3 10 -15 10 -32 10 -103 3z"/>
<path d="M2036 1960 c-85 -46 -190 -61 -476 -68 l-245 -7 180 -18 c276 -28
415 -63 415 -106 0 -41 -45 -46 -380 -45 -350 2 -349 7 -10 -47 302 -48 434
-102 343 -141 -38 -16 -348 -12 -604 7 -299 22 -315 17 -59 -20 335 -48 532
-95 635 -152 49 -28 92 -83 80 -103 -9 -14 -64 -12 -121 5 -80 24 -83 17 -9
-24 39 -21 113 -66 165 -101 169 -111 261 -144 335 -120 73 24 141 107 165
200 6 25 13 52 16 61 9 33 -154 81 -236 70 l-43 -6 36 -17 c57 -27 61 -78 10
-138 -67 -80 -158 7 -209 200 -12 45 -18 104 -18 190 0 110 2 131 23 178 27
59 52 82 93 82 14 0 79 -19 143 -41 64 -23 119 -39 122 -36 9 10 -47 98 -92
143 -53 53 -93 74 -153 80 -40 5 -56 1 -106 -26z"/>
<path d="M2591 1943 c1 -15 259 -228 291 -241 40 -17 468 -47 468 -33 0 3 -28
26 -61 49 -83 61 -249 146 -344 176 -125 40 -356 72 -354 49z"/>
<path d="M560 1804 c19 -9 45 -20 58 -25 12 -5 22 -17 22 -28 0 -25 4 -27 69
-36 l54 -7 -5 46 c-3 26 -9 50 -13 54 -3 4 -55 8 -113 9 -105 2 -106 2 -72
-13z"/>
<path d="M191 1736 c2 -2 49 -16 104 -31 55 -14 108 -28 117 -31 11 -3 21 -24
28 -61 7 -31 21 -76 31 -101 11 -25 18 -47 16 -49 -2 -2 -43 6 -92 17 -86 21
-124 22 -66 2 16 -6 75 -38 132 -71 90 -53 109 -61 154 -61 43 0 56 4 78 28
36 37 65 114 73 194 l6 65 -157 32 c-189 40 -436 79 -424 67z m349 -100 c84
-26 100 -37 100 -68 0 -35 -21 -88 -43 -106 -24 -20 -51 0 -75 56 -20 45 -40
132 -31 132 2 0 24 -6 49 -14z"/>
<path d="M2175 1728 c34 -18 73 -59 85 -88 10 -24 21 -29 103 -48 50 -12 93
-20 94 -18 6 5 -29 111 -40 123 -13 14 -170 43 -226 43 -32 -1 -34 -2 -16 -12z"/>
<path d="M4122 1680 c-42 -10 -49 -17 -23 -25 12 -3 26 -16 32 -27 16 -31 -7
-47 -103 -74 l-83 -23 80 0 c93 -1 125 -8 125 -27 0 -24 -44 -44 -161 -74
l-114 -29 93 -1 c101 0 141 -12 122 -35 -16 -20 -145 -71 -247 -99 -102 -28
-80 -32 62 -11 161 24 211 42 250 88 42 49 65 141 65 261 l0 86 -32 -1 c-18
-1 -48 -5 -66 -9z"/>
<path d="M3665 1614 c-59 -13 -77 -22 -112 -57 -24 -22 -41 -43 -38 -45 8 -8
256 70 298 94 l42 24 -60 -1 c-33 0 -91 -7 -130 -15z"/>
<path d="M2060 1557 c0 -3 26 -13 57 -22 32 -9 71 -24 88 -32 38 -19 85 -63
85 -79 0 -6 21 -15 46 -19 25 -3 64 -13 86 -21 23 -8 44 -12 47 -8 8 8 3 116
-7 126 -19 19 -176 50 -284 55 -65 3 -118 3 -118 0z"/>
<path d="M3493 1465 c-94 -24 -186 -51 -205 -59 l-33 -15 55 5 c30 3 72 7 94
10 l38 5 -7 -38 c-5 -21 -11 -56 -14 -78 -5 -35 -10 -40 -41 -47 -77 -17 -280
-38 -365 -38 -68 -1 -86 -3 -72 -11 54 -32 322 -27 572 9 l120 17 7 83 c4 56
15 101 32 138 14 31 26 58 26 60 0 10 -47 0 -207 -41z"/>
<path d="M3015 1460 c-118 -16 -266 -61 -350 -106 -58 -32 -98 -80 -140 -169
-24 -49 -53 -105 -65 -122 -18 -27 -19 -33 -6 -33 31 0 216 39 238 51 13 6 71
58 129 115 122 119 121 120 -43 80 -54 -13 -98 -22 -98 -20 0 19 242 104 294
104 16 0 136 76 165 106 6 6 -54 3 -124 -6z"/>
<path d="M0 430 c0 -283 1 -285 214 -285 209 0 216 9 216 295 l0 190 -60 0
-60 0 0 -183 c0 -129 -4 -187 -12 -195 -12 -12 -134 -17 -162 -6 -14 5 -16 32
-16 195 l0 189 -60 0 -60 0 0 -200z"/>
<path d="M612 615 c-78 -34 -85 -206 -10 -255 16 -10 60 -16 136 -18 l112 -4
0 -37 c0 -20 -5 -42 -12 -49 -8 -8 -55 -12 -145 -12 l-133 0 0 -44 0 -44 125
-7 c158 -9 210 -2 247 35 22 23 28 38 29 77 3 114 -12 154 -62 172 -18 6 -71
11 -118 11 -47 0 -92 4 -99 9 -8 5 -12 22 -10 42 l3 34 123 3 122 3 0 49 0 50
-137 0 c-97 -1 -148 -5 -171 -15z"/>
<path d="M1199 603 c-6 -15 -45 -120 -86 -233 -42 -113 -78 -211 -81 -218 -3
-10 10 -12 59 -10 l64 3 15 42 14 43 91 0 91 0 15 -42 16 -43 61 -3 c34 -2 62
1 62 5 0 4 -40 114 -89 243 l-88 235 -67 3 c-64 3 -66 2 -77 -25z m110 -202
c11 -36 21 -69 21 -73 0 -4 -25 -8 -55 -8 -30 0 -55 4 -55 9 0 23 54 151 60
144 4 -4 17 -37 29 -72z"/>
<path d="M1620 385 l0 -245 158 1 c184 0 219 9 244 59 34 68 11 168 -42 185
-21 7 -21 7 4 32 55 55 41 163 -24 195 -29 15 -62 18 -187 18 l-153 0 0 -245z
m278 107 c5 -51 -11 -62 -89 -62 l-69 0 0 50 0 51 78 -3 77 -3 3 -33z m20
-201 c2 -20 -2 -37 -10 -42 -7 -5 -48 -9 -90 -9 l-78 0 0 45 0 46 88 -3 87 -3
3 -34z"/>
<path d="M2140 580 l0 -50 35 0 36 0 -3 -142 -3 -143 -33 -3 c-33 -3 -33 -4
-30 -50 l3 -47 120 0 120 0 3 48 3 47 -35 0 -36 0 0 144 0 145 33 3 c31 3 32
5 35 51 l3 47 -125 0 -126 0 0 -50z"/>
<path d="M2510 385 l0 -247 158 4 c171 3 199 11 236 61 19 25 21 45 24 170 3
157 -6 191 -61 231 -26 19 -45 21 -193 24 l-164 4 0 -247z m284 129 c13 -12
16 -39 16 -126 0 -142 -4 -148 -107 -148 l-73 0 0 145 0 145 74 0 c54 0 79 -4
90 -16z"/>
<path d="M3060 385 l0 -246 58 3 57 3 3 88 3 87 99 0 100 0 0 50 0 50 -100 0
-100 0 0 55 0 55 124 0 124 0 4 39 c2 22 2 45 0 50 -2 7 -67 11 -188 11 l-184
0 0 -245z"/>
<path d="M3630 603 c-6 -15 -17 -44 -25 -63 -7 -19 -42 -111 -76 -205 -34 -93
-64 -176 -67 -183 -3 -10 10 -12 59 -10 l64 3 15 42 14 43 91 0 91 0 15 -42
16 -43 61 -3 c34 -2 62 1 62 5 -1 4 -40 114 -89 243 l-88 235 -66 3 c-65 3
-67 2 -77 -25z m109 -202 c11 -36 21 -69 21 -73 0 -4 -25 -8 -55 -8 -30 0 -55
4 -55 9 0 23 54 151 60 144 4 -4 17 -37 29 -72z"/>
<path d="M4010 626 c0 -2 32 -55 72 -117 39 -62 71 -118 71 -124 0 -5 -30 -57
-67 -114 -38 -58 -70 -111 -73 -118 -4 -10 10 -13 56 -13 l62 0 47 75 c26 41
50 75 54 75 3 0 28 -34 54 -75 l47 -75 59 0 c32 0 58 4 58 10 0 6 -31 59 -70
119 -38 59 -70 112 -70 118 0 5 34 62 75 126 l74 117 -67 0 -67 0 -43 -75
c-24 -41 -47 -75 -51 -75 -3 0 -27 34 -51 75 l-44 75 -63 0 c-35 0 -63 -2 -63
-4z"/>
</g>
</svg>
